<svg xmlns="http://www.w3.org/2000/svg" width="1140" height="560" viewBox="0 0 1140 560">
  <rect width="1140" height="560" fill="#fbfaf5"/>
  <text x="40" y="46" font-family="Helvetica, Arial, sans-serif" font-size="28" font-weight="700" fill="#1f2937">sspry Architecture</text>

  <g font-family="Helvetica, Arial, sans-serif">
    <rect x="40" y="96" width="280" height="150" rx="14" fill="#dbeafe" stroke="#1d4ed8" stroke-width="2"/>
    <text x="180" y="140" text-anchor="middle" font-size="24" font-weight="700" fill="#1e3a8a">Clients</text>
    <text x="180" y="176" text-anchor="middle" font-size="16" fill="#1e3a8a">index / delete / search / info</text>
    <text x="180" y="200" text-anchor="middle" font-size="16" fill="#1e3a8a">local-* commands for</text>
    <text x="180" y="222" text-anchor="middle" font-size="16" fill="#1e3a8a">direct on-disk access</text>

    <rect x="370" y="74" width="390" height="232" rx="14" fill="#fee2e2" stroke="#b91c1c" stroke-width="2"/>
    <text x="565" y="118" text-anchor="middle" font-size="25" font-weight="700" fill="#7f1d1d">gRPC Server</text>
    <text x="565" y="156" text-anchor="middle" font-size="16" fill="#7f1d1d">addr, shards, id-source,</text>
    <text x="565" y="178" text-anchor="middle" font-size="16" fill="#7f1d1d">gram sizes, tier1/tier2 fp</text>
    <text x="565" y="202" text-anchor="middle" font-size="16" fill="#7f1d1d">store-path, workers</text>
    <text x="565" y="226" text-anchor="middle" font-size="16" fill="#7f1d1d">one active top-level search</text>
    <text x="565" y="248" text-anchor="middle" font-size="16" fill="#7f1d1d">queued followers</text>

    <rect x="810" y="54" width="290" height="102" rx="14" fill="#dcfce7" stroke="#15803d" stroke-width="2"/>
    <text x="955" y="94" text-anchor="middle" font-size="21" font-weight="700" fill="#14532d">Published Store</text>
    <text x="955" y="122" text-anchor="middle" font-size="14" fill="#14532d">current/ or tree_*/current</text>

    <rect x="810" y="176" width="290" height="114" rx="14" fill="#dcfce7" stroke="#15803d" stroke-width="2"/>
    <text x="955" y="216" text-anchor="middle" font-size="21" font-weight="700" fill="#14532d">Shard Metadata</text>
    <text x="955" y="244" text-anchor="middle" font-size="14" fill="#14532d">doc state, ids, manifests</text>
    <text x="955" y="264" text-anchor="middle" font-size="14" fill="#14532d">compaction</text>

    <rect x="810" y="310" width="290" height="150" rx="14" fill="#dcfce7" stroke="#15803d" stroke-width="2"/>
    <text x="955" y="350" text-anchor="middle" font-size="21" font-weight="700" fill="#14532d">Binary Sidecars</text>
    <text x="955" y="378" text-anchor="middle" font-size="14" fill="#14532d">tier1/tier2 blooms,</text>
    <text x="955" y="398" text-anchor="middle" font-size="14" fill="#14532d">doc metadata, external ids,</text>
    <text x="955" y="418" text-anchor="middle" font-size="14" fill="#14532d">stored paths, sidecars</text>

    <rect x="370" y="342" width="390" height="110" rx="14" fill="#fde68a" stroke="#a16207" stroke-width="2"/>
    <text x="565" y="384" text-anchor="middle" font-size="23" font-weight="700" fill="#78350f">Local Verify</text>
    <text x="565" y="414" text-anchor="middle" font-size="16" fill="#78350f">optional yara-x over stored paths</text>
  </g>

  <g stroke="#334155" stroke-width="3" fill="#334155">
    <line x1="320" y1="172" x2="370" y2="172"/>
    <polygon points="370,172 358,166 358,178"/>

    <line x1="760" y1="130" x2="810" y2="106"/>
    <polygon points="810,106 799,102 803,114"/>

    <line x1="760" y1="196" x2="810" y2="226"/>
    <polygon points="810,226 798,223 804,213"/>

    <line x1="760" y1="396" x2="810" y2="380"/>
    <polygon points="810,380 799,376 802,388"/>

    <line x1="565" y1="306" x2="565" y2="342"/>
    <polygon points="565,342 559,330 571,330"/>
  </g>
</svg>
