<svg xmlns="http://www.w3.org/2000/svg" width="980" height="470" viewBox="0 0 980 470">
  <rect width="980" height="470" fill="#fbfaf5"/>
  <text x="40" y="44" font-family="Helvetica, Arial, sans-serif" font-size="28" font-weight="700" fill="#1f2937">sspry Architecture</text>

  <g font-family="Helvetica, Arial, sans-serif">
    <rect x="40" y="94" width="230" height="120" rx="14" fill="#dbeafe" stroke="#1d4ed8" stroke-width="2"/>
    <text x="155" y="132" text-anchor="middle" font-size="24" font-weight="700" fill="#1e3a8a">Clients</text>
    <text x="155" y="164" text-anchor="middle" font-size="16" fill="#1e3a8a">index / delete / search / info</text>
    <text x="155" y="188" text-anchor="middle" font-size="16" fill="#1e3a8a">local-* for direct on-disk access</text>

    <rect x="330" y="76" width="300" height="170" rx="14" fill="#fee2e2" stroke="#b91c1c" stroke-width="2"/>
    <text x="480" y="118" text-anchor="middle" font-size="26" font-weight="700" fill="#7f1d1d">gRPC Server</text>
    <text x="480" y="152" text-anchor="middle" font-size="16" fill="#7f1d1d">addr, shards, id-source, gram sizes,</text>
    <text x="480" y="176" text-anchor="middle" font-size="16" fill="#7f1d1d">tier1/tier2 fp, store-path, workers</text>
    <text x="480" y="200" text-anchor="middle" font-size="16" fill="#7f1d1d">one active top-level search, queued followers</text>

    <rect x="690" y="54" width="250" height="86" rx="14" fill="#dcfce7" stroke="#15803d" stroke-width="2"/>
    <text x="815" y="89" text-anchor="middle" font-size="23" font-weight="700" fill="#14532d">Published Store</text>
    <text x="815" y="113" text-anchor="middle" font-size="15" fill="#14532d">current/ or tree_*/current</text>

    <rect x="690" y="160" width="250" height="86" rx="14" fill="#dcfce7" stroke="#15803d" stroke-width="2"/>
    <text x="815" y="195" text-anchor="middle" font-size="23" font-weight="700" fill="#14532d">Shard Metadata</text>
    <text x="815" y="219" text-anchor="middle" font-size="15" fill="#14532d">doc state, ids, manifests, compaction</text>

    <rect x="690" y="266" width="250" height="118" rx="14" fill="#dcfce7" stroke="#15803d" stroke-width="2"/>
    <text x="815" y="302" text-anchor="middle" font-size="23" font-weight="700" fill="#14532d">Binary Sidecars</text>
    <text x="815" y="330" text-anchor="middle" font-size="15" fill="#14532d">tier1/tier2 blooms, doc metadata,</text>
    <text x="815" y="352" text-anchor="middle" font-size="15" fill="#14532d">external ids, stored paths, sidecars</text>

    <rect x="330" y="296" width="300" height="96" rx="14" fill="#fde68a" stroke="#a16207" stroke-width="2"/>
    <text x="480" y="334" text-anchor="middle" font-size="23" font-weight="700" fill="#78350f">Local Verify</text>
    <text x="480" y="362" text-anchor="middle" font-size="16" fill="#78350f">optional yara-x over stored paths</text>
  </g>

  <g stroke="#334155" stroke-width="3" fill="#334155">
    <line x1="270" y1="154" x2="330" y2="154"/>
    <polygon points="330,154 318,148 318,160"/>

    <line x1="630" y1="118" x2="690" y2="97"/>
    <polygon points="690,97 679,93 683,105"/>

    <line x1="630" y1="161" x2="690" y2="203"/>
    <polygon points="690,203 678,200 685,190"/>

    <line x1="630" y1="332" x2="690" y2="325"/>
    <polygon points="690,325 679,320 680,332"/>

    <line x1="480" y1="246" x2="480" y2="296"/>
    <polygon points="480,296 474,284 486,284"/>
  </g>
</svg>
